<svg width="1553" height="841" viewBox="0 0 1553 841" fill="none" xmlns="http://www.w3.org/2000/svg">
<g opacity="0.11">
<path d="M483 377.006H469C467.167 364.173 456.7 338.306 429.5 337.506C427 324.673 413.5 298.606 379.5 297.006C362.5 252.244 292.5 240.744 286.5 297.006C263 292.244 236.5 309.244 243.5 337.506C223.5 328.244 189.6 343.006 204 377.006H128" stroke="#C0C0C0" stroke-width="3" stroke-linecap="round" stroke-linejoin="round"/>
<path d="M518.5 376.744H509M501.5 376.744H488.5" stroke="#C0C0C0" stroke-width="3" stroke-linecap="round" stroke-linejoin="round"/>
</g>
<g opacity="0.11">
<path d="M1423 286.006H1409C1407.17 273.173 1396.7 247.306 1369.5 246.506C1367 233.673 1353.5 207.606 1319.5 206.006C1302.5 161.244 1232.5 149.744 1226.5 206.006C1203 201.244 1176.5 218.244 1183.5 246.506C1163.5 237.244 1129.6 252.006 1144 286.006H1068" stroke="#C0C0C0" stroke-width="3" stroke-linecap="round" stroke-linejoin="round"/>
<path d="M1458.5 285.744H1449M1441.5 285.744H1428.5" stroke="#C0C0C0" stroke-width="3" stroke-linecap="round" stroke-linejoin="round"/>
</g>
<g filter="url(#filter0_b)">
<rect x="289" y="27" width="974" height="379" rx="15" fill="#28282C"/>
</g>
<path d="M289 83H1263V397C1263 398.657 1261.66 400 1260 400H292C290.343 400 289 398.657 289 397V83Z" fill="#343438"/>
<g opacity="0.2">
<circle cx="1236" cy="104" r="2" fill="#E3E5EF"/>
<circle cx="1236" cy="112" r="2" fill="#E3E5EF"/>
<circle cx="1236" cy="120" r="2" fill="#E3E5EF"/>
</g>
<circle opacity="0.2" cx="1119" cy="113" r="9" fill="#858585"/>
<circle opacity="0.2" cx="1160" cy="113" r="9" fill="#858585"/>
<circle opacity="0.2" cx="1201" cy="113" r="9" fill="#858585"/>
<path d="M423.259 45.9189C424.595 41.7941 428.437 39 432.773 39H605.382C609.643 39 613.436 41.6995 614.831 45.7252L638.399 113.725C640.651 120.222 635.826 127 628.95 127H410.75C403.96 127 399.145 120.378 401.236 113.919L423.259 45.9189Z" fill="#343438"/>
<path opacity="0.2" d="M309 101C309 99.8954 309.895 99 311 99H991C992.105 99 993 99.8954 993 101V124C993 125.105 992.105 126 991 126H311C309.895 126 309 125.105 309 124V101Z" fill="#858585"/>
<rect x="289" y="143" width="974" height="566" rx="3" fill="#28282C"/>
<circle cx="316" cy="57" r="7" fill="#414141"/>
<circle cx="346" cy="57" r="7" fill="#414141"/>
<circle cx="376" cy="57" r="7" fill="#414141"/>
<g opacity="0.3">
<path d="M325.408 113.078C325.408 111.651 326.319 110.841 327.56 110.841C328.742 110.841 329.456 111.587 329.456 112.886V118H330.713V112.801C330.713 110.697 329.595 109.712 327.922 109.712C326.633 109.712 325.898 110.25 325.514 111.097H325.408V107.091H324.151V118H325.408V113.078Z" fill="black"/>
<path d="M336.571 109.818H334.824V107.858H333.567V109.818H332.331V110.884H333.567V115.997C333.567 117.425 334.717 118.107 335.783 118.107C336.252 118.107 336.55 118.021 336.72 117.957L336.465 116.828C336.358 116.849 336.188 116.892 335.911 116.892C335.357 116.892 334.824 116.722 334.824 115.656V110.884H336.571V109.818Z" fill="black"/>
<path d="M342.02 109.818H340.273V107.858H339.016V109.818H337.78V110.884H339.016V115.997C339.016 117.425 340.167 118.107 341.232 118.107C341.701 118.107 341.999 118.021 342.17 117.957L341.914 116.828C341.807 116.849 341.637 116.892 341.36 116.892C340.806 116.892 340.273 116.722 340.273 115.656V110.884H342.02V109.818Z" fill="black"/>
<path d="M343.911 121.068H345.168V116.743H345.275C345.552 117.19 346.085 118.17 347.661 118.17C349.707 118.17 351.134 116.53 351.134 113.93C351.134 111.352 349.707 109.712 347.64 109.712C346.042 109.712 345.552 110.692 345.275 111.118H345.126V109.818H343.911V121.068ZM345.147 113.909C345.147 112.077 345.957 110.841 347.491 110.841C349.089 110.841 349.877 112.183 349.877 113.909C349.877 115.656 349.068 117.041 347.491 117.041C345.978 117.041 345.147 115.763 345.147 113.909Z" fill="black"/>
<path d="M358.847 111.651C358.453 110.489 357.569 109.712 355.95 109.712C354.224 109.712 352.945 110.692 352.945 112.077C352.945 113.206 353.617 113.962 355.119 114.314L356.482 114.634C357.308 114.825 357.697 115.219 357.697 115.784C357.697 116.487 356.951 117.062 355.779 117.062C354.751 117.062 354.107 116.62 353.883 115.741L352.69 116.04C352.983 117.43 354.128 118.17 355.801 118.17C357.702 118.17 358.997 117.132 358.997 115.72C358.997 114.58 358.283 113.861 356.823 113.504L355.609 113.206C354.639 112.966 354.203 112.641 354.203 112.013C354.203 111.31 354.948 110.798 355.95 110.798C357.047 110.798 357.5 111.406 357.718 111.97L358.847 111.651Z" fill="black"/>
<path d="M361.805 118.085C362.332 118.085 362.764 117.654 362.764 117.126C362.764 116.599 362.332 116.168 361.805 116.168C361.278 116.168 360.846 116.599 360.846 117.126C360.846 117.654 361.278 118.085 361.805 118.085ZM361.805 112.013C362.332 112.013 362.764 111.581 362.764 111.054C362.764 110.527 362.332 110.095 361.805 110.095C361.278 110.095 360.846 110.527 360.846 111.054C360.846 111.581 361.278 112.013 361.805 112.013Z" fill="black"/>
<path d="M368.876 106.58H367.726L364.21 119.641H365.361L368.876 106.58Z" fill="black"/>
<path d="M374.223 106.58H373.072L369.557 119.641H370.707L374.223 106.58Z" fill="black"/>
<path d="M377.567 118H378.803L380.592 111.714H380.72L382.51 118H383.746L386.239 109.818H384.918L383.149 116.061H383.064L381.338 109.818H379.996L378.249 116.082H378.163L376.395 109.818H375.074L377.567 118Z" fill="black"/>
<path d="M389.754 118H390.99L392.78 111.714H392.908L394.698 118H395.933L398.426 109.818H397.105L395.337 116.061H395.251L393.526 109.818H392.183L390.436 116.082H390.351L388.582 109.818H387.261L389.754 118Z" fill="black"/>
<path d="M401.942 118H403.178L404.967 111.714H405.095L406.885 118H408.121L410.614 109.818H409.293L407.524 116.061H407.439L405.713 109.818H404.371L402.624 116.082H402.538L400.77 109.818H399.449L401.942 118Z" fill="black"/>
<path d="M412.079 118.085C412.606 118.085 413.037 117.654 413.037 117.126C413.037 116.599 412.606 116.168 412.079 116.168C411.551 116.168 411.12 116.599 411.12 117.126C411.12 117.654 411.551 118.085 412.079 118.085Z" fill="black"/>
<path d="M418.596 121.239C420.556 121.239 422.133 120.344 422.133 118.234V109.818H420.918V111.118H420.79C420.513 110.692 420.002 109.712 418.404 109.712C416.337 109.712 414.91 111.352 414.91 113.866C414.91 116.423 416.401 117.872 418.383 117.872C419.981 117.872 420.492 116.935 420.769 116.487H420.876V118.149C420.876 119.513 419.917 120.131 418.596 120.131C417.11 120.131 416.588 119.348 416.252 118.895L415.251 119.598C415.762 120.456 416.769 121.239 418.596 121.239ZM418.553 116.743C416.976 116.743 416.167 115.55 416.167 113.845C416.167 112.183 416.955 110.841 418.553 110.841C420.087 110.841 420.897 112.077 420.897 113.845C420.897 115.656 420.066 116.743 418.553 116.743Z" fill="black"/>
<path d="M427.758 118.17C429.974 118.17 431.465 116.487 431.465 113.952C431.465 111.395 429.974 109.712 427.758 109.712C425.542 109.712 424.05 111.395 424.05 113.952C424.05 116.487 425.542 118.17 427.758 118.17ZM427.758 117.041C426.074 117.041 425.307 115.592 425.307 113.952C425.307 112.311 426.074 110.841 427.758 110.841C429.441 110.841 430.208 112.311 430.208 113.952C430.208 115.592 429.441 117.041 427.758 117.041Z" fill="black"/>
<path d="M436.708 118.17C438.924 118.17 440.415 116.487 440.415 113.952C440.415 111.395 438.924 109.712 436.708 109.712C434.492 109.712 433.001 111.395 433.001 113.952C433.001 116.487 434.492 118.17 436.708 118.17ZM436.708 117.041C435.025 117.041 434.258 115.592 434.258 113.952C434.258 112.311 435.025 110.841 436.708 110.841C438.391 110.841 439.158 112.311 439.158 113.952C439.158 115.592 438.391 117.041 436.708 117.041Z" fill="black"/>
<path d="M445.637 121.239C447.597 121.239 449.174 120.344 449.174 118.234V109.818H447.959V111.118H447.831C447.554 110.692 447.043 109.712 445.445 109.712C443.378 109.712 441.951 111.352 441.951 113.866C441.951 116.423 443.442 117.872 445.424 117.872C447.022 117.872 447.533 116.935 447.81 116.487H447.917V118.149C447.917 119.513 446.958 120.131 445.637 120.131C444.151 120.131 443.629 119.348 443.293 118.895L442.292 119.598C442.803 120.456 443.81 121.239 445.637 121.239ZM445.594 116.743C444.017 116.743 443.208 115.55 443.208 113.845C443.208 112.183 443.996 110.841 445.594 110.841C447.128 110.841 447.938 112.077 447.938 113.845C447.938 115.656 447.107 116.743 445.594 116.743Z" fill="black"/>
<path d="M452.732 107.091H451.475V118H452.732V107.091Z" fill="black"/>
<path d="M458.465 118.17C460.127 118.17 461.341 117.339 461.725 116.104L460.51 115.763C460.191 116.615 459.45 117.041 458.465 117.041C456.989 117.041 455.972 116.088 455.913 114.335H461.853V113.803C461.853 110.756 460.042 109.712 458.337 109.712C456.121 109.712 454.651 111.459 454.651 113.973C454.651 116.487 456.1 118.17 458.465 118.17ZM455.913 113.249C455.999 111.975 456.899 110.841 458.337 110.841C459.701 110.841 460.574 111.864 460.574 113.249H455.913Z" fill="black"/>
<path d="M464.681 118.085C465.208 118.085 465.64 117.654 465.64 117.126C465.64 116.599 465.208 116.168 464.681 116.168C464.154 116.168 463.722 116.599 463.722 117.126C463.722 117.654 464.154 118.085 464.681 118.085Z" fill="black"/>
<path d="M471.22 118.17C473.031 118.17 474.224 117.062 474.437 115.614H473.18C472.945 116.509 472.2 117.041 471.22 117.041C469.728 117.041 468.769 115.805 468.769 113.909C468.769 112.055 469.749 110.841 471.22 110.841C472.328 110.841 472.988 111.523 473.18 112.268H474.437C474.224 110.734 472.924 109.712 471.198 109.712C468.982 109.712 467.512 111.459 467.512 113.952C467.512 116.402 468.918 118.17 471.22 118.17Z" fill="black"/>
<path d="M479.599 118.17C481.814 118.17 483.306 116.487 483.306 113.952C483.306 111.395 481.814 109.712 479.599 109.712C477.383 109.712 475.891 111.395 475.891 113.952C475.891 116.487 477.383 118.17 479.599 118.17ZM479.599 117.041C477.915 117.041 477.148 115.592 477.148 113.952C477.148 112.311 477.915 110.841 479.599 110.841C481.282 110.841 482.049 112.311 482.049 113.952C482.049 115.592 481.282 117.041 479.599 117.041Z" fill="black"/>
<path d="M485.225 118H486.482V112.886C486.482 111.688 487.356 110.841 488.336 110.841C489.289 110.841 489.955 111.464 489.955 112.396V118H491.233V112.673C491.233 111.619 491.894 110.841 493.044 110.841C493.939 110.841 494.706 111.315 494.706 112.524V118H495.963V112.524C495.963 110.601 494.93 109.712 493.471 109.712C492.299 109.712 491.441 110.25 491.02 111.097H490.935C490.53 110.223 489.816 109.712 488.74 109.712C487.675 109.712 486.887 110.223 486.546 111.097H486.439V109.818H485.225V118Z" fill="black"/>
</g>
<path d="M437.96 58.0909H436.405L439.92 63.5455L436.405 69H437.96L440.773 64.5469H440.858L443.67 69H445.226L441.795 63.5455L445.226 58.0909H443.67L440.858 62.6293H440.773L437.96 58.0909Z" fill="#797979"/>
<path d="M450.333 60.8182H448.586V58.858H447.329V60.8182H446.093V61.8835H447.329V66.9972C447.329 68.4247 448.479 69.1065 449.544 69.1065C450.013 69.1065 450.311 69.0213 450.482 68.9574L450.226 67.8281C450.12 67.8494 449.949 67.892 449.672 67.892C449.118 67.892 448.586 67.7216 448.586 66.6562V61.8835H450.333V60.8182Z" fill="#797979"/>
<path d="M452.224 69H453.481V63.8224C453.481 62.7145 454.354 61.9048 455.548 61.9048C455.883 61.9048 456.229 61.9687 456.315 61.9901V60.7116C456.171 60.701 455.841 60.6903 455.654 60.6903C454.674 60.6903 453.822 61.2443 453.523 62.054H453.438V60.8182H452.224V69Z" fill="#797979"/>
<path d="M460.212 69.1918C461.64 69.1918 462.386 68.4247 462.641 67.892H462.705V69H463.962V63.6094C463.962 61.0099 461.981 60.7116 460.937 60.7116C459.701 60.7116 458.295 61.1378 457.656 62.6293L458.849 63.0554C459.126 62.4588 459.781 61.8196 460.98 61.8196C462.135 61.8196 462.705 62.4322 462.705 63.4815V63.5241C462.705 64.1314 462.087 64.0781 460.596 64.2699C459.078 64.467 457.421 64.8026 457.421 66.6776C457.421 68.2756 458.657 69.1918 460.212 69.1918ZM460.404 68.0625C459.403 68.0625 458.678 67.6151 458.678 66.7415C458.678 65.7827 459.552 65.4844 460.532 65.3565C461.065 65.2926 462.492 65.1435 462.705 64.8878V66.0384C462.705 67.0611 461.896 68.0625 460.404 68.0625Z" fill="#797979"/>
<path d="M479.425 61.5C479.02 59.2628 477.23 57.9418 475.035 57.9418C472.244 57.9418 470.22 60.0937 470.22 63.5455C470.22 66.9972 472.244 69.1491 475.035 69.1491C477.23 69.1491 479.02 67.8281 479.425 65.5909H478.104C477.784 67.1037 476.484 67.9134 475.035 67.9134C473.054 67.9134 471.498 66.3793 471.498 63.5455C471.498 60.7116 473.054 59.1776 475.035 59.1776C476.484 59.1776 477.784 59.9872 478.104 61.5H479.425Z" fill="#797979"/>
<path d="M482.646 58.0909H481.389V69H482.646V58.0909Z" fill="#797979"/>
<path d="M484.948 69H486.205V60.8182H484.948V69ZM485.588 59.4545C486.078 59.4545 486.482 59.071 486.482 58.6023C486.482 58.1335 486.078 57.75 485.588 57.75C485.098 57.75 484.693 58.1335 484.693 58.6023C484.693 59.071 485.098 59.4545 485.588 59.4545Z" fill="#797979"/>
<path d="M488.508 72.0682H489.765V67.7429H489.872C490.149 68.1903 490.681 69.1705 492.258 69.1705C494.303 69.1705 495.731 67.5298 495.731 64.9304C495.731 62.3523 494.303 60.7116 492.237 60.7116C490.639 60.7116 490.149 61.6918 489.872 62.1179H489.722V60.8182H488.508V72.0682ZM489.744 64.9091C489.744 63.0767 490.553 61.8409 492.087 61.8409C493.686 61.8409 494.474 63.1832 494.474 64.9091C494.474 66.6563 493.664 68.0412 492.087 68.0412C490.575 68.0412 489.744 66.7628 489.744 64.9091Z" fill="#797979"/>
<path d="M497.819 69H499.034V67.7429H499.183C499.46 68.1903 499.992 69.1705 501.569 69.1705C503.614 69.1705 505.042 67.5298 505.042 64.9304C505.042 62.3523 503.614 60.7116 501.548 60.7116C499.95 60.7116 499.46 61.6918 499.183 62.1179H499.076V58.0909H497.819V69ZM499.055 64.9091C499.055 63.0767 499.864 61.8409 501.399 61.8409C502.997 61.8409 503.785 63.1832 503.785 64.9091C503.785 66.6563 502.975 68.0412 501.399 68.0412C499.886 68.0412 499.055 66.7628 499.055 64.9091Z" fill="#797979"/>
<path d="M510.289 69.1705C512.505 69.1705 513.996 67.4872 513.996 64.9517C513.996 62.3949 512.505 60.7116 510.289 60.7116C508.073 60.7116 506.581 62.3949 506.581 64.9517C506.581 67.4872 508.073 69.1705 510.289 69.1705ZM510.289 68.0412C508.606 68.0412 507.839 66.5923 507.839 64.9517C507.839 63.3111 508.606 61.8409 510.289 61.8409C511.972 61.8409 512.739 63.3111 512.739 64.9517C512.739 66.5923 511.972 68.0412 510.289 68.0412Z" fill="#797979"/>
<path d="M518.323 69.1918C519.75 69.1918 520.496 68.4247 520.752 67.892H520.816V69H522.073V63.6094C522.073 61.0099 520.091 60.7116 519.047 60.7116C517.811 60.7116 516.405 61.1378 515.766 62.6293L516.959 63.0554C517.236 62.4588 517.891 61.8196 519.09 61.8196C520.246 61.8196 520.816 62.4322 520.816 63.4815V63.5241C520.816 64.1314 520.198 64.0781 518.706 64.2699C517.188 64.467 515.532 64.8026 515.532 66.6776C515.532 68.2756 516.767 69.1918 518.323 69.1918ZM518.515 68.0625C517.513 68.0625 516.789 67.6151 516.789 66.7415C516.789 65.7827 517.662 65.4844 518.642 65.3565C519.175 65.2926 520.603 65.1435 520.816 64.8878V66.0384C520.816 67.0611 520.006 68.0625 518.515 68.0625Z" fill="#797979"/>
<path d="M524.367 69H525.624V63.8224C525.624 62.7145 526.498 61.9048 527.691 61.9048C528.027 61.9048 528.373 61.9687 528.458 61.9901V60.7116C528.314 60.701 527.984 60.6903 527.798 60.6903C526.818 60.6903 525.965 61.2443 525.667 62.054H525.582V60.8182H524.367V69Z" fill="#797979"/>
<path d="M532.789 69.1705C534.366 69.1705 534.898 68.1903 535.175 67.7429H535.324V69H536.539V58.0909H535.282V62.1179H535.175C534.898 61.6918 534.408 60.7116 532.81 60.7116C530.743 60.7116 529.316 62.3523 529.316 64.9304C529.316 67.5298 530.743 69.1705 532.789 69.1705ZM532.959 68.0412C531.383 68.0412 530.573 66.6563 530.573 64.9091C530.573 63.1832 531.361 61.8409 532.959 61.8409C534.493 61.8409 535.303 63.0767 535.303 64.9091C535.303 66.7628 534.472 68.0412 532.959 68.0412Z" fill="#797979"/>
<path d="M547.922 63.7372H543.149V64.9091H547.922V63.7372Z" fill="#797979"/>
<path d="M561.981 61.5H563.344C562.939 59.3906 561.171 57.9418 558.87 57.9418C556.073 57.9418 554.097 60.0937 554.097 63.5455C554.097 66.9972 556.057 69.1491 558.955 69.1491C561.554 69.1491 563.408 67.418 563.408 64.7173V63.5455H559.253V64.7173H562.13C562.092 66.6776 560.803 67.9134 558.955 67.9134C556.931 67.9134 555.375 66.3793 555.375 63.5455C555.375 60.7116 556.931 59.1776 558.87 59.1776C560.446 59.1776 561.517 60.0671 561.981 61.5Z" fill="#797979"/>
<path d="M568.824 69.1705C571.04 69.1705 572.531 67.4872 572.531 64.9517C572.531 62.3949 571.04 60.7116 568.824 60.7116C566.608 60.7116 565.117 62.3949 565.117 64.9517C565.117 67.4872 566.608 69.1705 568.824 69.1705ZM568.824 68.0412C567.141 68.0412 566.374 66.5923 566.374 64.9517C566.374 63.3111 567.141 61.8409 568.824 61.8409C570.507 61.8409 571.274 63.3111 571.274 64.9517C571.274 66.5923 570.507 68.0412 568.824 68.0412Z" fill="#797979"/>
<path d="M577.774 69.1705C579.99 69.1705 581.482 67.4872 581.482 64.9517C581.482 62.3949 579.99 60.7116 577.774 60.7116C575.558 60.7116 574.067 62.3949 574.067 64.9517C574.067 67.4872 575.558 69.1705 577.774 69.1705ZM577.774 68.0412C576.091 68.0412 575.324 66.5923 575.324 64.9517C575.324 63.3111 576.091 61.8409 577.774 61.8409C579.457 61.8409 580.224 63.3111 580.224 64.9517C580.224 66.5923 579.457 68.0412 577.774 68.0412Z" fill="#797979"/>
<path d="M586.703 72.2386C588.663 72.2386 590.24 71.3438 590.24 69.2344V60.8182H589.026V62.1179H588.898C588.621 61.6918 588.109 60.7116 586.511 60.7116C584.445 60.7116 583.017 62.3523 583.017 64.8665C583.017 67.4233 584.508 68.8722 586.49 68.8722C588.088 68.8722 588.599 67.9347 588.876 67.4872H588.983V69.1491C588.983 70.5128 588.024 71.1307 586.703 71.1307C585.217 71.1307 584.695 70.3477 584.359 69.8949L583.358 70.598C583.869 71.4556 584.876 72.2386 586.703 72.2386ZM586.66 67.7429C585.084 67.7429 584.274 66.5497 584.274 64.8452C584.274 63.1832 585.062 61.8409 586.66 61.8409C588.195 61.8409 589.004 63.0767 589.004 64.8452C589.004 66.6562 588.173 67.7429 586.66 67.7429Z" fill="#797979"/>
<path d="M593.457 69.0852C593.985 69.0852 594.416 68.6538 594.416 68.1264C594.416 67.5991 593.985 67.1676 593.457 67.1676C592.93 67.1676 592.499 67.5991 592.499 68.1264C592.499 68.6538 592.93 69.0852 593.457 69.0852Z" fill="#797979"/>
<path d="M597.588 69.0852C598.116 69.0852 598.547 68.6538 598.547 68.1264C598.547 67.5991 598.116 67.1676 597.588 67.1676C597.061 67.1676 596.629 67.5991 596.629 68.1264C596.629 68.6538 597.061 69.0852 597.588 69.0852Z" fill="#797979"/>
<defs>
<filter id="filter0_b" x="247" y="-15" width="1058" height="463" filterUnits="userSpaceOnUse" color-interpolation-filters="sRGB">
<feFlood flood-opacity="0" result="BackgroundImageFix"/>
<feGaussianBlur in="BackgroundImage" stdDeviation="21"/>
<feComposite in2="SourceAlpha" operator="in" result="effect1_backgroundBlur"/>
<feBlend mode="normal" in="SourceGraphic" in2="effect1_backgroundBlur" result="shape"/>
</filter>
</defs>
</svg>
