<svg
	width="28"
	height="28"
	viewBox="0 0 28 28"
	fill="none"
	xmlns="http://www.w3.org/2000/svg"
>
	<path
		fill-rule="evenodd"
		clip-rule="evenodd"
		d="M0 27.0773C0 27.6036 0.418459 28.0336 0.932773 27.9979C4.23658 27.7686 7.36053 26.3267 9.71685 23.9209C12.2939 21.2897 13.7417 17.7211 13.7417 14C13.7417 10.2789 12.2939 6.71029 9.71685 4.07911C7.36053 1.67331 4.23658 0.231436 0.932776 0.00207431C0.418462 -0.0336318 3.16501e-06 0.396414 3.0661e-06 0.922741L1.5825e-06 8.6292C1.4836e-06 9.15552 0.422661 9.5719 0.926212 9.68458C1.09485 9.72231 1.26083 9.77025 1.42332 9.82804C4.80443 10.7774 6.98485 12.8455 7.43912 14C6.19927 16.4091 2.58057 17.8807 0.926211 18.3154C0.42266 18.4281 3.95626e-07 18.8445 3.95626e-07 19.3708L0 27.0773ZM8.05904 15.8491C8.66175 17.1698 8.57565 21.5547 6.45756 23.7736C5.83099 24.43 5.24259 24.9492 4.65688 25.3642C3.23111 26.3745 1.54982 25.0617 1.54982 23.3143C1.54982 21.2766 2.93721 19.5091 4.72415 18.5299C5.96509 17.8499 7.23472 16.9449 8.05904 15.8491Z"
		fill="#0078FF"
	/>
	<path
		fill-rule="evenodd"
		clip-rule="evenodd"
		d="M28 0.922741C28 0.396414 27.5815 -0.0336323 27.0672 0.0020732C23.7634 0.231433 20.6395 1.67331 18.2831 4.07911C15.7061 6.71029 14.2583 10.2789 14.2583 14C14.2583 17.7211 15.7061 21.2897 18.2831 23.9209C20.6395 26.3267 23.7634 27.7686 27.0672 27.9979C27.5815 28.0336 28 27.6036 28 27.0773L28 19.3708C28 18.8445 27.5773 18.4281 27.0738 18.3154C26.9052 18.2777 26.7392 18.2297 26.5767 18.172C23.1956 17.2226 21.0151 15.1545 20.5609 14C21.8007 11.5909 25.4194 10.1193 27.0738 9.68458C27.5773 9.5719 28 9.15552 28 8.6292L28 0.922741ZM19.941 12.1509C19.3383 10.8302 19.4244 6.44528 21.5424 4.22642C22.169 3.57003 22.7574 3.05081 23.3431 2.63579C24.7689 1.62552 26.4502 2.9383 26.4502 4.68572C26.4502 6.72337 25.0628 8.49087 23.2758 9.47007C22.0349 10.1501 20.7653 11.0551 19.941 12.1509Z"
		fill="#0078FF"
	/>
</svg>
