<svg
	width="65"
	height="65"
	viewBox="0 0 65 65"
	fill="none"
	xmlns="http://www.w3.org/2000/svg"
>
	<circle
		cx="32.5"
		cy="32.5"
		r="32.5"
		fill="#0078FF"
	/>
	<path
		fill-rule="evenodd"
		clip-rule="evenodd"
		d="M17.5 46.484C17.5 47.0636 17.9608 47.5371 18.5272 47.4978C22.1653 47.2452 25.6053 45.6575 28.2001 43.0082C31.0379 40.1108 32.6322 36.181 32.6322 32.0834C32.6322 27.9858 31.0379 24.056 28.2001 21.1586C25.6053 18.5094 22.1653 16.9216 18.5272 16.669C17.9608 16.6297 17.5 17.1032 17.5 17.6828L17.5 26.1691C17.5 26.7487 17.9654 27.2072 18.5199 27.3313C18.7056 27.3728 18.8884 27.4256 19.0673 27.4893C22.7906 28.5347 25.1916 30.812 25.6919 32.0834C24.3266 34.7362 20.3417 36.3568 18.5199 36.8355C17.9654 36.9596 17.5 37.4181 17.5 37.9977L17.5 46.484ZM26.3745 34.1196C27.0382 35.574 26.9434 40.4026 24.611 42.846C23.0569 44.474 21.7161 45.3358 20.1421 45.846C19.67 45.999 19.2066 45.6295 19.2066 45.1333L19.2066 39.5207C19.2066 38.9421 19.5937 38.4372 20.1371 38.2385C21.9562 37.5733 24.8536 36.1415 26.3745 34.1196Z"
		fill="white"
	/>
	<path
		fill-rule="evenodd"
		clip-rule="evenodd"
		d="M48.3333 17.6828C48.3333 17.1032 47.8725 16.6297 47.3062 16.669C43.6681 16.9216 40.228 18.5093 37.6332 21.1586C34.7954 24.056 33.2011 27.9858 33.2011 32.0834C33.2011 36.181 34.7954 40.1108 37.6332 43.0082C40.228 45.6574 43.6681 47.2452 47.3062 47.4978C47.8725 47.5371 48.3333 47.0636 48.3333 46.484L48.3333 37.9977C48.3333 37.4181 47.8679 36.9596 47.3134 36.8355C47.1277 36.794 46.9449 36.7412 46.766 36.6775C43.0427 35.6321 40.6417 33.3548 40.1415 32.0834C41.5068 29.4306 45.4916 27.81 47.3134 27.3313C47.8679 27.2072 48.3333 26.7487 48.3333 26.1691V17.6828ZM39.4588 30.0472C38.7951 28.5928 38.8899 23.7642 41.2223 21.3208C42.7764 19.6928 44.1173 18.831 45.6913 18.3208C46.1633 18.1678 46.6267 18.5373 46.6267 19.0335V24.6461C46.6267 25.2248 46.2396 25.7296 45.6962 25.9283C43.8771 26.5935 40.9797 28.0253 39.4588 30.0472Z"
		fill="white"
	/>
</svg>
