<svg
	width="1579"
	height="993"
	viewBox="0 0 1579 993"
	fill="none"
	xmlns="http://www.w3.org/2000/svg"
>
	<g opacity="0.11">
		<path
			d="M496 377.006H482C480.167 364.173 469.7 338.306 442.5 337.506C440 324.673 426.5 298.606 392.5 297.006C375.5 252.244 305.5 240.744 299.5 297.006C276 292.244 249.5 309.244 256.5 337.506C236.5 328.244 202.6 343.006 217 377.006H141"
			stroke="#C0C0C0"
			stroke-width="3"
			stroke-linecap="round"
			stroke-linejoin="round"
		/>
		<path
			d="M531.5 376.744H522M514.5 376.744H501.5"
			stroke="#C0C0C0"
			stroke-width="3"
			stroke-linecap="round"
			stroke-linejoin="round"
		/>
	</g>
	<g opacity="0.11">
		<path
			d="M1436 286.006H1422C1420.17 273.173 1409.7 247.306 1382.5 246.506C1380 233.673 1366.5 207.606 1332.5 206.006C1315.5 161.244 1245.5 149.744 1239.5 206.006C1216 201.244 1189.5 218.244 1196.5 246.506C1176.5 237.244 1142.6 252.006 1157 286.006H1081"
			stroke="#C0C0C0"
			stroke-width="3"
			stroke-linecap="round"
			stroke-linejoin="round"
		/>
		<path
			d="M1471.5 285.744H1462M1454.5 285.744H1441.5"
			stroke="#C0C0C0"
			stroke-width="3"
			stroke-linecap="round"
			stroke-linejoin="round"
		/>
	</g>
	<g filter="url(#filter0_b)">
		<rect
			x="302"
			y="27"
			width="974"
			height="379"
			rx="15"
			fill="#252525"
		/>
	</g>
	<path
		d="M302 83H1276V397C1276 398.657 1274.66 400 1273 400H305C303.343 400 302 398.657 302 397V83Z"
		fill="#343438"
	/>
	<g opacity="0.2">
		<circle
			cx="1249"
			cy="104"
			r="2"
			fill="#E3E5EF"
		/>
		<circle
			cx="1249"
			cy="112"
			r="2"
			fill="#E3E5EF"
		/>
		<circle
			cx="1249"
			cy="120"
			r="2"
			fill="#E3E5EF"
		/>
	</g>
	<circle
		opacity="0.2"
		cx="1132"
		cy="113"
		r="9"
		fill="#858585"
	/>
	<circle
		opacity="0.2"
		cx="1173"
		cy="113"
		r="9"
		fill="#858585"
	/>
	<circle
		opacity="0.2"
		cx="1214"
		cy="113"
		r="9"
		fill="#858585"
	/>
	<path
		d="M436.259 45.9189C437.595 41.7941 441.437 39 445.773 39H618.382C622.643 39 626.436 41.6995 627.831 45.7252L651.399 113.725C653.651 120.222 648.826 127 641.951 127H423.75C416.96 127 412.145 120.378 414.236 113.919L436.259 45.9189Z"
		fill="#343438"
	/>
	<path
		opacity="0.2"
		d="M322 101C322 99.8954 322.895 99 324 99H1004C1005.1 99 1006 99.8954 1006 101V124C1006 125.105 1005.1 126 1004 126H324C322.895 126 322 125.105 322 124V101Z"
		fill="#858585"
	/>
	<rect
		x="302"
		y="143"
		width="974"
		height="566"
		rx="3"
		fill="#28282C"
	/>
	<circle
		cx="329"
		cy="57"
		r="7"
		fill="#414141"
	/>
	<circle
		cx="359"
		cy="57"
		r="7"
		fill="#414141"
	/>
	<circle
		cx="389"
		cy="57"
		r="7"
		fill="#414141"
	/>
	<g opacity="0.3">
		<path
			d="M338.408 113.078C338.408 111.651 339.319 110.841 340.56 110.841C341.742 110.841 342.456 111.587 342.456 112.886V118H343.713V112.801C343.713 110.697 342.595 109.712 340.922 109.712C339.633 109.712 338.898 110.25 338.514 111.097H338.408V107.091H337.151V118H338.408V113.078Z"
			fill="black"
		/>
		<path
			d="M349.571 109.818H347.824V107.858H346.567V109.818H345.331V110.884H346.567V115.997C346.567 117.425 347.717 118.107 348.783 118.107C349.252 118.107 349.55 118.021 349.72 117.957L349.465 116.828C349.358 116.849 349.188 116.892 348.911 116.892C348.357 116.892 347.824 116.722 347.824 115.656V110.884H349.571V109.818Z"
			fill="black"
		/>
		<path
			d="M355.02 109.818H353.273V107.858H352.016V109.818H350.78V110.884H352.016V115.997C352.016 117.425 353.167 118.107 354.232 118.107C354.701 118.107 354.999 118.021 355.17 117.957L354.914 116.828C354.807 116.849 354.637 116.892 354.36 116.892C353.806 116.892 353.273 116.722 353.273 115.656V110.884H355.02V109.818Z"
			fill="black"
		/>
		<path
			d="M356.911 121.068H358.168V116.743H358.275C358.552 117.19 359.085 118.17 360.661 118.17C362.707 118.17 364.134 116.53 364.134 113.93C364.134 111.352 362.707 109.712 360.64 109.712C359.042 109.712 358.552 110.692 358.275 111.118H358.126V109.818H356.911V121.068ZM358.147 113.909C358.147 112.077 358.957 110.841 360.491 110.841C362.089 110.841 362.877 112.183 362.877 113.909C362.877 115.656 362.068 117.041 360.491 117.041C358.978 117.041 358.147 115.763 358.147 113.909Z"
			fill="black"
		/>
		<path
			d="M371.847 111.651C371.453 110.489 370.569 109.712 368.95 109.712C367.224 109.712 365.945 110.692 365.945 112.077C365.945 113.206 366.617 113.962 368.119 114.314L369.482 114.634C370.308 114.825 370.697 115.219 370.697 115.784C370.697 116.487 369.951 117.062 368.779 117.062C367.751 117.062 367.107 116.62 366.883 115.741L365.69 116.04C365.983 117.43 367.128 118.17 368.801 118.17C370.702 118.17 371.997 117.132 371.997 115.72C371.997 114.58 371.283 113.861 369.823 113.504L368.609 113.206C367.639 112.966 367.203 112.641 367.203 112.013C367.203 111.31 367.948 110.798 368.95 110.798C370.047 110.798 370.5 111.406 370.718 111.97L371.847 111.651Z"
			fill="black"
		/>
		<path
			d="M374.805 118.085C375.332 118.085 375.764 117.654 375.764 117.126C375.764 116.599 375.332 116.168 374.805 116.168C374.278 116.168 373.846 116.599 373.846 117.126C373.846 117.654 374.278 118.085 374.805 118.085ZM374.805 112.013C375.332 112.013 375.764 111.581 375.764 111.054C375.764 110.527 375.332 110.095 374.805 110.095C374.278 110.095 373.846 110.527 373.846 111.054C373.846 111.581 374.278 112.013 374.805 112.013Z"
			fill="black"
		/>
		<path
			d="M381.876 106.58H380.726L377.21 119.641H378.361L381.876 106.58Z"
			fill="black"
		/>
		<path
			d="M387.223 106.58H386.072L382.557 119.641H383.707L387.223 106.58Z"
			fill="black"
		/>
		<path
			d="M390.567 118H391.803L393.592 111.714H393.72L395.51 118H396.746L399.239 109.818H397.918L396.149 116.061H396.064L394.338 109.818H392.996L391.249 116.082H391.163L389.395 109.818H388.074L390.567 118Z"
			fill="black"
		/>
		<path
			d="M402.754 118H403.99L405.78 111.714H405.908L407.698 118H408.933L411.426 109.818H410.105L408.337 116.061H408.251L406.526 109.818H405.183L403.436 116.082H403.351L401.582 109.818H400.261L402.754 118Z"
			fill="black"
		/>
		<path
			d="M414.942 118H416.178L417.967 111.714H418.095L419.885 118H421.121L423.614 109.818H422.293L420.524 116.061H420.439L418.713 109.818H417.371L415.624 116.082H415.538L413.77 109.818H412.449L414.942 118Z"
			fill="black"
		/>
		<path
			d="M425.079 118.085C425.606 118.085 426.037 117.654 426.037 117.126C426.037 116.599 425.606 116.168 425.079 116.168C424.551 116.168 424.12 116.599 424.12 117.126C424.12 117.654 424.551 118.085 425.079 118.085Z"
			fill="black"
		/>
		<path
			d="M431.596 121.239C433.556 121.239 435.133 120.344 435.133 118.234V109.818H433.918V111.118H433.79C433.513 110.692 433.002 109.712 431.404 109.712C429.337 109.712 427.91 111.352 427.91 113.866C427.91 116.423 429.401 117.872 431.383 117.872C432.981 117.872 433.492 116.935 433.769 116.487H433.876V118.149C433.876 119.513 432.917 120.131 431.596 120.131C430.11 120.131 429.588 119.348 429.252 118.895L428.251 119.598C428.762 120.456 429.769 121.239 431.596 121.239ZM431.553 116.743C429.976 116.743 429.167 115.55 429.167 113.845C429.167 112.183 429.955 110.841 431.553 110.841C433.087 110.841 433.897 112.077 433.897 113.845C433.897 115.656 433.066 116.743 431.553 116.743Z"
			fill="black"
		/>
		<path
			d="M440.758 118.17C442.974 118.17 444.465 116.487 444.465 113.952C444.465 111.395 442.974 109.712 440.758 109.712C438.542 109.712 437.05 111.395 437.05 113.952C437.05 116.487 438.542 118.17 440.758 118.17ZM440.758 117.041C439.074 117.041 438.307 115.592 438.307 113.952C438.307 112.311 439.074 110.841 440.758 110.841C442.441 110.841 443.208 112.311 443.208 113.952C443.208 115.592 442.441 117.041 440.758 117.041Z"
			fill="black"
		/>
		<path
			d="M449.708 118.17C451.924 118.17 453.415 116.487 453.415 113.952C453.415 111.395 451.924 109.712 449.708 109.712C447.492 109.712 446.001 111.395 446.001 113.952C446.001 116.487 447.492 118.17 449.708 118.17ZM449.708 117.041C448.025 117.041 447.258 115.592 447.258 113.952C447.258 112.311 448.025 110.841 449.708 110.841C451.391 110.841 452.158 112.311 452.158 113.952C452.158 115.592 451.391 117.041 449.708 117.041Z"
			fill="black"
		/>
		<path
			d="M458.637 121.239C460.597 121.239 462.174 120.344 462.174 118.234V109.818H460.959V111.118H460.831C460.554 110.692 460.043 109.712 458.445 109.712C456.378 109.712 454.951 111.352 454.951 113.866C454.951 116.423 456.442 117.872 458.424 117.872C460.022 117.872 460.533 116.935 460.81 116.487H460.917V118.149C460.917 119.513 459.958 120.131 458.637 120.131C457.151 120.131 456.629 119.348 456.293 118.895L455.292 119.598C455.803 120.456 456.81 121.239 458.637 121.239ZM458.594 116.743C457.017 116.743 456.208 115.55 456.208 113.845C456.208 112.183 456.996 110.841 458.594 110.841C460.128 110.841 460.938 112.077 460.938 113.845C460.938 115.656 460.107 116.743 458.594 116.743Z"
			fill="black"
		/>
		<path
			d="M465.732 107.091H464.475V118H465.732V107.091Z"
			fill="black"
		/>
		<path
			d="M471.465 118.17C473.127 118.17 474.341 117.339 474.725 116.104L473.51 115.763C473.191 116.615 472.45 117.041 471.465 117.041C469.989 117.041 468.972 116.088 468.913 114.335H474.853V113.803C474.853 110.756 473.042 109.712 471.337 109.712C469.121 109.712 467.651 111.459 467.651 113.973C467.651 116.487 469.1 118.17 471.465 118.17ZM468.913 113.249C468.999 111.975 469.899 110.841 471.337 110.841C472.701 110.841 473.574 111.864 473.574 113.249H468.913Z"
			fill="black"
		/>
		<path
			d="M477.681 118.085C478.208 118.085 478.64 117.654 478.64 117.126C478.64 116.599 478.208 116.168 477.681 116.168C477.154 116.168 476.722 116.599 476.722 117.126C476.722 117.654 477.154 118.085 477.681 118.085Z"
			fill="black"
		/>
		<path
			d="M484.22 118.17C486.031 118.17 487.224 117.062 487.437 115.614H486.18C485.945 116.509 485.2 117.041 484.22 117.041C482.728 117.041 481.769 115.805 481.769 113.909C481.769 112.055 482.749 110.841 484.22 110.841C485.328 110.841 485.988 111.523 486.18 112.268H487.437C487.224 110.734 485.924 109.712 484.198 109.712C481.982 109.712 480.512 111.459 480.512 113.952C480.512 116.402 481.918 118.17 484.22 118.17Z"
			fill="black"
		/>
		<path
			d="M492.599 118.17C494.814 118.17 496.306 116.487 496.306 113.952C496.306 111.395 494.814 109.712 492.599 109.712C490.383 109.712 488.891 111.395 488.891 113.952C488.891 116.487 490.383 118.17 492.599 118.17ZM492.599 117.041C490.915 117.041 490.148 115.592 490.148 113.952C490.148 112.311 490.915 110.841 492.599 110.841C494.282 110.841 495.049 112.311 495.049 113.952C495.049 115.592 494.282 117.041 492.599 117.041Z"
			fill="black"
		/>
		<path
			d="M498.225 118H499.482V112.886C499.482 111.688 500.356 110.841 501.336 110.841C502.289 110.841 502.955 111.464 502.955 112.396V118H504.233V112.673C504.233 111.619 504.894 110.841 506.044 110.841C506.939 110.841 507.706 111.315 507.706 112.524V118H508.963V112.524C508.963 110.601 507.93 109.712 506.471 109.712C505.299 109.712 504.441 110.25 504.02 111.097H503.935C503.53 110.223 502.816 109.712 501.74 109.712C500.675 109.712 499.887 110.223 499.546 111.097H499.439V109.818H498.225V118Z"
			fill="black"
		/>
	</g>
	<path
		d="M450.96 58.0909H449.405L452.92 63.5455L449.405 69H450.96L453.773 64.5469H453.858L456.67 69H458.226L454.795 63.5455L458.226 58.0909H456.67L453.858 62.6293H453.773L450.96 58.0909Z"
		fill="#797979"
	/>
	<path
		d="M463.333 60.8182H461.586V58.858H460.329V60.8182H459.093V61.8835H460.329V66.9972C460.329 68.4247 461.479 69.1065 462.544 69.1065C463.013 69.1065 463.311 69.0213 463.482 68.9574L463.226 67.8281C463.12 67.8494 462.949 67.892 462.672 67.892C462.118 67.892 461.586 67.7216 461.586 66.6562V61.8835H463.333V60.8182Z"
		fill="#797979"
	/>
	<path
		d="M465.224 69H466.481V63.8224C466.481 62.7145 467.354 61.9048 468.548 61.9048C468.883 61.9048 469.229 61.9688 469.315 61.9901V60.7116C469.171 60.701 468.841 60.6903 468.654 60.6903C467.674 60.6903 466.822 61.2443 466.523 62.054H466.438V60.8182H465.224V69Z"
		fill="#797979"
	/>
	<path
		d="M473.212 69.1918C474.64 69.1918 475.386 68.4247 475.641 67.892H475.705V69H476.962V63.6094C476.962 61.0099 474.981 60.7116 473.937 60.7116C472.701 60.7116 471.295 61.1378 470.656 62.6293L471.849 63.0554C472.126 62.4588 472.781 61.8196 473.98 61.8196C475.135 61.8196 475.705 62.4322 475.705 63.4815V63.5241C475.705 64.1314 475.087 64.0781 473.596 64.2699C472.078 64.467 470.421 64.8026 470.421 66.6776C470.421 68.2756 471.657 69.1918 473.212 69.1918ZM473.404 68.0625C472.403 68.0625 471.678 67.6151 471.678 66.7415C471.678 65.7827 472.552 65.4844 473.532 65.3565C474.065 65.2926 475.492 65.1435 475.705 64.8878V66.0384C475.705 67.0611 474.896 68.0625 473.404 68.0625Z"
		fill="#797979"
	/>
	<path
		d="M492.425 61.5C492.02 59.2628 490.23 57.9418 488.035 57.9418C485.244 57.9418 483.22 60.0937 483.22 63.5455C483.22 66.9972 485.244 69.1491 488.035 69.1491C490.23 69.1491 492.02 67.8281 492.425 65.5909H491.104C490.784 67.1037 489.484 67.9134 488.035 67.9134C486.054 67.9134 484.498 66.3793 484.498 63.5455C484.498 60.7116 486.054 59.1776 488.035 59.1776C489.484 59.1776 490.784 59.9872 491.104 61.5H492.425Z"
		fill="#797979"
	/>
	<path
		d="M495.646 58.0909H494.389V69H495.646V58.0909Z"
		fill="#797979"
	/>
	<path
		d="M497.948 69H499.205V60.8182H497.948V69ZM498.588 59.4545C499.078 59.4545 499.482 59.071 499.482 58.6023C499.482 58.1335 499.078 57.75 498.588 57.75C498.098 57.75 497.693 58.1335 497.693 58.6023C497.693 59.071 498.098 59.4545 498.588 59.4545Z"
		fill="#797979"
	/>
	<path
		d="M501.508 72.0682H502.765V67.7429H502.872C503.149 68.1903 503.681 69.1705 505.258 69.1705C507.303 69.1705 508.731 67.5298 508.731 64.9304C508.731 62.3523 507.303 60.7116 505.237 60.7116C503.639 60.7116 503.149 61.6918 502.872 62.1179H502.722V60.8182H501.508V72.0682ZM502.744 64.9091C502.744 63.0767 503.553 61.8409 505.087 61.8409C506.686 61.8409 507.474 63.1832 507.474 64.9091C507.474 66.6562 506.664 68.0412 505.087 68.0412C503.575 68.0412 502.744 66.7628 502.744 64.9091Z"
		fill="#797979"
	/>
	<path
		d="M510.819 69H512.034V67.7429H512.183C512.46 68.1903 512.992 69.1705 514.569 69.1705C516.614 69.1705 518.042 67.5298 518.042 64.9304C518.042 62.3523 516.614 60.7116 514.548 60.7116C512.95 60.7116 512.46 61.6918 512.183 62.1179H512.076V58.0909H510.819V69ZM512.055 64.9091C512.055 63.0767 512.864 61.8409 514.399 61.8409C515.997 61.8409 516.785 63.1832 516.785 64.9091C516.785 66.6562 515.975 68.0412 514.399 68.0412C512.886 68.0412 512.055 66.7628 512.055 64.9091Z"
		fill="#797979"
	/>
	<path
		d="M523.289 69.1705C525.505 69.1705 526.996 67.4872 526.996 64.9517C526.996 62.3949 525.505 60.7116 523.289 60.7116C521.073 60.7116 519.581 62.3949 519.581 64.9517C519.581 67.4872 521.073 69.1705 523.289 69.1705ZM523.289 68.0412C521.606 68.0412 520.839 66.5923 520.839 64.9517C520.839 63.3111 521.606 61.8409 523.289 61.8409C524.972 61.8409 525.739 63.3111 525.739 64.9517C525.739 66.5923 524.972 68.0412 523.289 68.0412Z"
		fill="#797979"
	/>
	<path
		d="M531.323 69.1918C532.75 69.1918 533.496 68.4247 533.752 67.892H533.816V69H535.073V63.6094C535.073 61.0099 533.091 60.7116 532.047 60.7116C530.811 60.7116 529.405 61.1378 528.766 62.6293L529.959 63.0554C530.236 62.4588 530.891 61.8196 532.09 61.8196C533.246 61.8196 533.816 62.4322 533.816 63.4815V63.5241C533.816 64.1314 533.198 64.0781 531.706 64.2699C530.188 64.467 528.532 64.8026 528.532 66.6776C528.532 68.2756 529.767 69.1918 531.323 69.1918ZM531.515 68.0625C530.513 68.0625 529.789 67.6151 529.789 66.7415C529.789 65.7827 530.662 65.4844 531.642 65.3565C532.175 65.2926 533.603 65.1435 533.816 64.8878V66.0384C533.816 67.0611 533.006 68.0625 531.515 68.0625Z"
		fill="#797979"
	/>
	<path
		d="M537.367 69H538.624V63.8224C538.624 62.7145 539.498 61.9048 540.691 61.9048C541.027 61.9048 541.373 61.9688 541.458 61.9901V60.7116C541.314 60.701 540.984 60.6903 540.798 60.6903C539.818 60.6903 538.965 61.2443 538.667 62.054H538.582V60.8182H537.367V69Z"
		fill="#797979"
	/>
	<path
		d="M545.789 69.1705C547.366 69.1705 547.898 68.1903 548.175 67.7429H548.324V69H549.539V58.0909H548.282V62.1179H548.175C547.898 61.6918 547.408 60.7116 545.81 60.7116C543.743 60.7116 542.316 62.3523 542.316 64.9304C542.316 67.5298 543.743 69.1705 545.789 69.1705ZM545.959 68.0412C544.383 68.0412 543.573 66.6562 543.573 64.9091C543.573 63.1832 544.361 61.8409 545.959 61.8409C547.493 61.8409 548.303 63.0767 548.303 64.9091C548.303 66.7628 547.472 68.0412 545.959 68.0412Z"
		fill="#797979"
	/>
	<path
		d="M560.922 63.7372H556.149V64.9091H560.922V63.7372Z"
		fill="#797979"
	/>
	<path
		d="M574.981 61.5H576.344C575.939 59.3906 574.171 57.9418 571.87 57.9418C569.073 57.9418 567.097 60.0937 567.097 63.5455C567.097 66.9972 569.057 69.1491 571.955 69.1491C574.554 69.1491 576.408 67.418 576.408 64.7173V63.5455H572.253V64.7173H575.13C575.092 66.6776 573.803 67.9134 571.955 67.9134C569.931 67.9134 568.375 66.3793 568.375 63.5455C568.375 60.7116 569.931 59.1776 571.87 59.1776C573.446 59.1776 574.517 60.0671 574.981 61.5Z"
		fill="#797979"
	/>
	<path
		d="M581.824 69.1705C584.04 69.1705 585.531 67.4872 585.531 64.9517C585.531 62.3949 584.04 60.7116 581.824 60.7116C579.608 60.7116 578.117 62.3949 578.117 64.9517C578.117 67.4872 579.608 69.1705 581.824 69.1705ZM581.824 68.0412C580.141 68.0412 579.374 66.5923 579.374 64.9517C579.374 63.3111 580.141 61.8409 581.824 61.8409C583.507 61.8409 584.274 63.3111 584.274 64.9517C584.274 66.5923 583.507 68.0412 581.824 68.0412Z"
		fill="#797979"
	/>
	<path
		d="M590.774 69.1705C592.99 69.1705 594.482 67.4872 594.482 64.9517C594.482 62.3949 592.99 60.7116 590.774 60.7116C588.558 60.7116 587.067 62.3949 587.067 64.9517C587.067 67.4872 588.558 69.1705 590.774 69.1705ZM590.774 68.0412C589.091 68.0412 588.324 66.5923 588.324 64.9517C588.324 63.3111 589.091 61.8409 590.774 61.8409C592.457 61.8409 593.224 63.3111 593.224 64.9517C593.224 66.5923 592.457 68.0412 590.774 68.0412Z"
		fill="#797979"
	/>
	<path
		d="M599.703 72.2386C601.663 72.2386 603.24 71.3438 603.24 69.2344V60.8182H602.026V62.1179H601.898C601.621 61.6918 601.109 60.7116 599.511 60.7116C597.445 60.7116 596.017 62.3523 596.017 64.8665C596.017 67.4233 597.508 68.8722 599.49 68.8722C601.088 68.8722 601.599 67.9347 601.876 67.4872H601.983V69.1491C601.983 70.5128 601.024 71.1307 599.703 71.1307C598.217 71.1307 597.695 70.3477 597.359 69.8949L596.358 70.598C596.869 71.4556 597.876 72.2386 599.703 72.2386ZM599.66 67.7429C598.084 67.7429 597.274 66.5497 597.274 64.8452C597.274 63.1832 598.062 61.8409 599.66 61.8409C601.195 61.8409 602.004 63.0767 602.004 64.8452C602.004 66.6562 601.173 67.7429 599.66 67.7429Z"
		fill="#797979"
	/>
	<path
		d="M606.457 69.0852C606.985 69.0852 607.416 68.6538 607.416 68.1264C607.416 67.5991 606.985 67.1676 606.457 67.1676C605.93 67.1676 605.499 67.5991 605.499 68.1264C605.499 68.6538 605.93 69.0852 606.457 69.0852Z"
		fill="#797979"
	/>
	<path
		d="M610.588 69.0852C611.116 69.0852 611.547 68.6538 611.547 68.1264C611.547 67.5991 611.116 67.1676 610.588 67.1676C610.061 67.1676 609.629 67.5991 609.629 68.1264C609.629 68.6538 610.061 69.0852 610.588 69.0852Z"
		fill="#797979"
	/>
	<rect
		y="168"
		width="1579"
		height="825"
		fill="url(#paint0_linear)"
	/>
	<defs>
		<filter
			id="filter0_b"
			x="260"
			y="-15"
			width="1058"
			height="463"
			filterUnits="userSpaceOnUse"
			color-interpolation-filters="sRGB"
		>
			<feFlood
				flood-opacity="0"
				result="BackgroundImageFix"
			/>
			<feGaussianBlur
				in="BackgroundImage"
				stdDeviation="21"
			/>
			<feComposite
				in2="SourceAlpha"
				operator="in"
				result="effect1_backgroundBlur"
			/>
			<feBlend
				mode="normal"
				in="SourceGraphic"
				in2="effect1_backgroundBlur"
				result="shape"
			/>
		</filter>
		<linearGradient
			id="paint0_linear"
			x1="789.5"
			y1="168"
			x2="789.5"
			y2="993"
			gradientUnits="userSpaceOnUse"
		>
			<stop stop-opacity="0" />
			<stop
				offset="0.661458"
				stop-color="#181818"
			/>
		</linearGradient>
	</defs>
</svg>
